<?xml version="1.0" encoding="UTF-8"?>
<svg id="Layer_4" data-name="Layer 4" xmlns="http://www.w3.org/2000/svg" viewBox="0 0 566.93 566.93">
  <defs>
    <style>
      .cls-1 {
        fill: #e79c9b;
        stroke-width: 0px;
      }
    </style>
  </defs>
  <path class="cls-1" d="m290.07,38.11c-130.21,0-235.77,105.56-235.77,235.77s105.56,235.77,235.77,235.77,235.77-105.56,235.77-235.77S420.28,38.11,290.07,38.11Zm-120.34,143.01h241.12c1.62,0,3.16.32,4.58.88l-116.81,101.13c-5.12,4.43-12.82,4.42-17.92-.02l-115.98-100.93c1.53-.68,3.23-1.06,5.01-1.06Zm-12.43,173.78v-161.35c0-1.01.13-1.99.36-2.93l97.67,84.99-97.48,82.97c-.36-1.16-.56-2.4-.56-3.68Zm253.55,12.43h-241.12c-1.51,0-2.94-.28-4.28-.77l98.27-83.65,9.76,8.49c4.61,4.02,10.4,6.02,16.19,6.02s11.54-1.99,16.15-5.98l9.31-8.06,99.08,83.47c-1.07.3-2.19.47-3.36.47Zm12.43-12.43c0,1.59-.31,3.1-.85,4.5l-98.88-83.3,99.25-85.93c.3,1.08.48,2.21.48,3.38v161.35Z"/>
</svg>