<?xml version="1.0" encoding="UTF-8"?>
<svg id="github" xmlns="http://www.w3.org/2000/svg" viewBox="0 0 566.93 566.93">
  <defs>
    <style>
      .cls-1 {
        fill: #e79c9b;
        stroke-width: 0px;
      }
    </style>
  </defs>
  <path class="cls-1" d="m538.27,292.06c0-134.74-109.23-243.97-243.97-243.97S49.92,158.12,50.33,292.83c.33,107.31,69.95,198.31,166.46,230.62,8.82,2.95,17.94-3.69,17.94-13v-41.92c-11.37,1.42-24.46.95-38.94-1.31-10.11-1.58-20.1-3.76-28.66-11.74-6.03-5.62-8.68-11.42-12.26-18.73-4.6-9.4-4.42-14.18-8.89-20.55-4.01-5.7-9.1-12.44-17.87-17.09-4.29-2.27-11.56-2.83-12.97-7.4-.23-.74-.95-3.08.17-4.83,2.81-4.4,16.8-3.01,25.49,1.19,7.23,3.49,11.75,8.33,15.19,12.09,6.17,6.73,6.51,9.79,11.74,16.66,3.12,4.1,9.46,12.42,19.86,17.96,3.83,2.04,16.23,7.6,35.05,3.97,5.09-.98,9.13-3.63,12.44-6.08,1.35-13.62,6.64-25.97,14.64-35.71-1.43-.26-2.89-.55-4.37-.85-28.3-5.9-70.57-14.22-92.72-49.99-21.45-34.64-13.71-71.54-10.62-86.24,1.67-7.98,6.49-30.86,22.21-52.41-1.76-9.66-3.32-20.27-3.69-26.98-1.08-19.63.84-30.79,6.09-33.54,1.45-.76,2.8-.78,3.88-.78,17.12.1,31.6,6.86,31.6,6.86,5.65,2.64,14.85,8.29,23.63,15.15,16.37-3.08,34.65-3.09,56.66-3.1,29.74-.02,56.61-.02,80.2,5.06,9.48-7.74,19.9-14.22,26.08-17.11,0,0,14.48-6.77,31.6-6.86,1.08,0,2.44.02,3.88.78,5.25,2.75,7.16,13.91,6.09,33.54-.4,7.23-2.18,18.98-4.1,29.21,22.82,31.03,22.74,66.89,22.52,75.29-.13,5.11-2.48,61.2-45.84,93.24-18.17,13.43-37.57,18.21-61.9,20.17,8.63,11.16,13.82,25.48,13.82,41.12v70.65c0,9.35,9.19,15.97,18.05,12.97,96.24-32.68,165.49-123.78,165.49-231.07Z"/>
</svg>