<?xml version="1.0" encoding="UTF-8"?>
<svg id="linkedin" xmlns="http://www.w3.org/2000/svg" viewBox="0 0 566.93 566.93">
  <defs>
    <style>
      .cls-1 {
        fill: #e79c9b;
        stroke-width: 0px;
      }
    </style>
  </defs>
  <path class="cls-1" d="m283.46,46.49c-134.74,0-243.97,109.23-243.97,243.97s109.23,243.97,243.97,243.97,243.97-109.23,243.97-243.97S418.21,46.49,283.46,46.49Zm-73.99,378.71h-63.03v-192.08h63.03v192.08Zm-31.55-219.34c-18.82,0-34.07-15.25-34.07-34.07s15.25-34.07,34.07-34.07,34.07,15.25,34.07,34.07-15.25,34.07-34.07,34.07Zm253.72,219.34h-59.06v-103c-.07-5.61-.42-15.16-1.92-21.74-1.42-6.24-4.88-11.97-11.14-16.59-10.02-7.39-22.4-4.68-25.91-3.9-3.12.69-13.09,3.03-20.59,12.49-6.56,8.28-7.37,16.72-7.45,21.37v111.37h-60.34v-192.93h60.34v23.53c4.26-5.87,11.99-14.73,24.28-21.26,3.77-2,31.24-16,60.76-2.84,21.31,9.5,31.06,27.17,33.15,32.23,6.03,14.62,7.88,27.47,7.88,37.76v123.51Z"/>
</svg>